<mxfile host="app.diagrams.net" modified="2023-11-05T12:59:42.912Z" agent="Mozilla/5.0 (Linux; Android 10; K) AppleWebKit/537.36 (KHTML, like Gecko) Chrome/118.0.0.0 Mobile Safari/537.36" etag="JsBlaecgH_cagvGz_jAW" version="22.0.8" type="github">
  <diagram name="Page-1" id="c4acf3e9-155e-7222-9cf6-157b1a14988f">
    <mxGraphModel dx="389" dy="698" grid="0" gridSize="10" guides="1" tooltips="1" connect="1" arrows="1" fold="1" page="1" pageScale="1" pageWidth="850" pageHeight="1100" background="none" math="0" shadow="0">
      <root>
        <mxCell id="0" />
        <mxCell id="1" parent="0" />
        <mxCell id="m7hgx1LQ3ufyT0KJ-3Pl-1" value="Správa" style="swimlane;fontStyle=0;childLayout=stackLayout;horizontal=1;startSize=26;fillColor=none;horizontalStack=0;resizeParent=1;resizeParentMax=0;resizeLast=0;collapsible=1;marginBottom=0;whiteSpace=wrap;html=1;" vertex="1" parent="1">
          <mxGeometry x="155" y="293" width="140" height="124" as="geometry" />
        </mxCell>
        <mxCell id="m7hgx1LQ3ufyT0KJ-3Pl-2" value="&amp;lt;&amp;lt;PK&amp;gt;&amp;gt; URL" style="text;strokeColor=none;fillColor=none;align=left;verticalAlign=top;spacingLeft=4;spacingRight=4;overflow=hidden;rotatable=0;points=[[0,0.5],[1,0.5]];portConstraint=eastwest;whiteSpace=wrap;html=1;" vertex="1" parent="m7hgx1LQ3ufyT0KJ-3Pl-1">
          <mxGeometry y="26" width="140" height="23" as="geometry" />
        </mxCell>
        <mxCell id="m7hgx1LQ3ufyT0KJ-3Pl-4" value="ČasZverejnenia" style="text;strokeColor=none;fillColor=none;align=left;verticalAlign=top;spacingLeft=4;spacingRight=4;overflow=hidden;rotatable=0;points=[[0,0.5],[1,0.5]];portConstraint=eastwest;whiteSpace=wrap;html=1;" vertex="1" parent="m7hgx1LQ3ufyT0KJ-3Pl-1">
          <mxGeometry y="49" width="140" height="26" as="geometry" />
        </mxCell>
        <mxCell id="m7hgx1LQ3ufyT0KJ-3Pl-3" value="DátumZverejnenia" style="text;strokeColor=none;fillColor=none;align=left;verticalAlign=top;spacingLeft=4;spacingRight=4;overflow=hidden;rotatable=0;points=[[0,0.5],[1,0.5]];portConstraint=eastwest;whiteSpace=wrap;html=1;" vertex="1" parent="m7hgx1LQ3ufyT0KJ-3Pl-1">
          <mxGeometry y="75" width="140" height="26" as="geometry" />
        </mxCell>
        <mxCell id="m7hgx1LQ3ufyT0KJ-3Pl-6" value="&amp;nbsp;OsobnéČíslo" style="text;strokeColor=none;align=left;fillColor=none;html=1;verticalAlign=middle;whiteSpace=wrap;rounded=0;" vertex="1" parent="m7hgx1LQ3ufyT0KJ-3Pl-1">
          <mxGeometry y="101" width="140" height="23" as="geometry" />
        </mxCell>
        <mxCell id="m7hgx1LQ3ufyT0KJ-3Pl-5" value="" style="edgeStyle=none;orthogonalLoop=1;jettySize=auto;html=1;rounded=0;exitX=1;exitY=0.5;exitDx=0;exitDy=0;" edge="1" parent="1" source="m7hgx1LQ3ufyT0KJ-3Pl-3">
          <mxGeometry width="80" relative="1" as="geometry">
            <mxPoint x="226" y="359" as="sourcePoint" />
            <mxPoint x="435" y="404" as="targetPoint" />
            <Array as="points" />
          </mxGeometry>
        </mxCell>
      </root>
    </mxGraphModel>
  </diagram>
</mxfile>
